<svg id="Layer_2" data-name="Layer 2" xmlns="http://www.w3.org/2000/svg" viewBox="0 0 1375.16 615.55"><defs><style>.cls-1{fill:#161616;opacity:0.4;}.cls-2{opacity:0.74;}.cls-3,.cls-4{fill:none;}.cls-3{stroke:#7a7a7a;}.cls-4{stroke:#d8d8d8;stroke-width:3px;}</style></defs><title>gridsvg</title><rect class="cls-1" x="1.5" y="1.5" width="1372.16" height="612.55" rx="2.51"/><g class="cls-2"><rect class="cls-3" x="1.5" y="1.5" width="1372.16" height="612.55"/><line class="cls-3" x1="1.5" y1="511.96" x2="1373.66" y2="511.96"/><line class="cls-3" x1="1.5" y1="409.87" x2="1373.66" y2="409.87"/><line class="cls-3" x1="1.5" y1="307.77" x2="1373.66" y2="307.77"/><line class="cls-3" x1="1.5" y1="205.68" x2="1373.66" y2="205.68"/><line class="cls-3" x1="1.5" y1="103.59" x2="1373.66" y2="103.59"/><line class="cls-3" x1="1248.92" y1="1.5" x2="1248.92" y2="614.05"/><line class="cls-3" x1="1124.18" y1="1.5" x2="1124.18" y2="614.05"/><line class="cls-3" x1="999.44" y1="1.5" x2="999.44" y2="614.05"/><line class="cls-3" x1="874.7" y1="1.5" x2="874.7" y2="614.05"/><line class="cls-3" x1="749.95" y1="1.5" x2="749.95" y2="614.05"/><line class="cls-3" x1="625.21" y1="1.5" x2="625.21" y2="614.05"/><line class="cls-3" x1="500.47" y1="1.5" x2="500.47" y2="614.05"/><line class="cls-3" x1="375.73" y1="1.5" x2="375.73" y2="614.05"/><line class="cls-3" x1="250.98" y1="1.5" x2="250.98" y2="614.05"/><line class="cls-3" x1="126.24" y1="1.5" x2="126.24" y2="614.05"/></g><rect class="cls-4" x="1.5" y="1.5" width="1372.16" height="612.55" rx="2.51"/></svg>